<?xml version="1.0" encoding="UTF-8"?>
<svg version="1.1" xmlns="http://www.w3.org/2000/svg" width="1329" height="392">
<path d="M0 0 C1.03769531 0.76699219 2.07539063 1.53398438 3.14453125 2.32421875 C6.47701907 4.82420589 9.74621727 7.39874005 13 10 C14.01578125 10.80824219 15.0315625 11.61648437 16.078125 12.44921875 C22.94946273 18.03387437 29.32473028 24.09454157 35.625 30.3125 C36.79905396 31.46008789 36.79905396 31.46008789 37.99682617 32.63085938 C43.79018563 38.43119649 47.71172744 43.4959596 48 52 C46.43437765 58.63866124 43.36414261 64.58181736 40.0625 70.5 C39.34223633 71.79659546 39.34223633 71.79659546 38.60742188 73.11938477 C30.83477044 86.84344379 21.45273638 99.22517839 11 111 C10.5477002 111.51933105 10.09540039 112.03866211 9.62939453 112.57373047 C-5.87237704 130.36472354 -25.70909778 145.91347378 -50 148 C-56.13391027 148.24705722 -62.00833169 147.78817963 -68.0625 146.8125 C-68.8774292 146.68230469 -69.6923584 146.55210937 -70.53198242 146.41796875 C-80.38058193 144.73526463 -91.50494796 142.38400906 -100 137 C-101.09375 134.55078125 -101.09375 134.55078125 -101 132 C-99.59375 130.04296875 -99.59375 130.04296875 -97.5 128.1875 C-94.74542471 125.63273846 -92.1287322 123.10701384 -89.6875 120.25 C-86.73063003 116.81491188 -83.69447307 113.45934611 -80.625 110.125 C-76.49886596 105.64058992 -72.40712261 101.12783843 -68.33984375 96.58984375 C-66.59200561 94.65525829 -64.83513797 92.73172112 -63.06640625 90.81640625 C-62.56753906 90.27564453 -62.06867188 89.73488281 -61.5546875 89.17773438 C-60.58121893 88.12399287 -59.60603574 87.07183202 -58.62890625 86.02148438 C-56.53630179 83.75551007 -54.71642662 81.57463993 -53 79 C-54.00546875 78.62488281 -54.00546875 78.62488281 -55.03125 78.2421875 C-57.92899318 77.02971075 -60.68697371 75.63680795 -63.46923828 74.18188477 C-79.85903855 65.65201636 -97.63155203 60.80325854 -116 65.4375 C-137.31893469 72.39927641 -155.53798742 88.28241327 -172 103 C-172.90105469 103.80179688 -173.80210937 104.60359375 -174.73046875 105.4296875 C-176.38168377 106.90938096 -178.02772871 108.39486876 -179.66796875 109.88671875 C-181.17963765 111.25658956 -182.7025104 112.61423684 -184.23828125 113.95703125 C-189.92720308 118.95754574 -195.32308477 124.21714233 -200.6875 129.5625 C-201.40043213 130.27083984 -202.11336426 130.97917969 -202.84790039 131.70898438 C-206.88255436 135.75535745 -210.7393949 139.90105831 -214.4699707 144.22924805 C-216.35001415 146.40508259 -218.29904135 148.51274162 -220.25 150.625 C-225.28954042 156.21786833 -229.90791816 162.09503334 -234.49804688 168.05664062 C-236.05584456 170.07225662 -237.6286808 172.07549261 -239.203125 174.078125 C-249.21458259 186.88856472 -257.97965187 200.32761736 -266.18457031 214.35595703 C-267.64215357 216.83439705 -268.95701239 218.95701239 -271 221 C-274.31286384 221.43211268 -276.208492 221.58213113 -278.94921875 219.56640625 C-281.88078304 215.89776294 -283.31754532 211.94218593 -284.9375 207.5625 C-285.28232422 206.63236084 -285.62714844 205.70222168 -285.98242188 204.74389648 C-298.31454752 170.51648515 -294.85511021 140.71012529 -279.59277344 107.98242188 C-269.69162752 87.46144672 -257.54373629 68.52625612 -243 51 C-242.55011719 50.44860352 -242.10023438 49.89720703 -241.63671875 49.32910156 C-229.32715989 34.27156372 -215.72536048 20.47951315 -200 9 C-199.154375 8.3709375 -198.30875 7.741875 -197.4375 7.09375 C-176.35581442 -8.16273299 -151.96152644 -19.75217671 -127 -27 C-126.2265625 -27.22993652 -125.453125 -27.45987305 -124.65625 -27.69677734 C-81.2904474 -40.20679501 -35.54801658 -26.31072176 0 0 Z " fill="#FFB839" transform="translate(389,32)"/>
<path d="M0 0 C3.9996065 0.39211828 4.66425885 1.25778876 7.1875 4.3125 C11.99781122 14.10535865 15.23832413 24.82901447 18.1875 35.3125 C18.43628906 36.19679687 18.68507813 37.08109375 18.94140625 37.9921875 C22.55661507 53.81820654 20.77208749 70.92162301 16.1875 86.3125 C15.9620752 87.08207031 15.73665039 87.85164063 15.50439453 88.64453125 C-2.342901 147.86895796 -48.91235051 201.55202378 -102.8125 230.875 C-120.49576445 240.154914 -139.38723113 246.8045591 -158.8125 251.3125 C-159.59939209 251.50465088 -160.38628418 251.69680176 -161.19702148 251.89477539 C-196.71800808 259.91772394 -234.07915981 246.44546092 -264.05957031 227.92431641 C-268.77236033 224.8934343 -273.3216065 221.66158025 -277.8125 218.3125 C-278.71838867 217.63985107 -278.71838867 217.63985107 -279.64257812 216.95361328 C-288.54747019 210.28455037 -296.79871543 203.0208848 -304.8125 195.3125 C-305.40047363 194.75175781 -305.98844727 194.19101562 -306.59423828 193.61328125 C-308.38571939 191.8983921 -310.16372044 190.17067767 -311.9375 188.4375 C-312.48220947 187.91430176 -313.02691895 187.39110352 -313.58813477 186.85205078 C-318.03462221 182.44281067 -321.20074661 177.8972455 -321.5 171.4375 C-321.24338898 163.19247631 -316.84708363 156.27256513 -312.8125 149.3125 C-312.42739258 148.64524902 -312.04228516 147.97799805 -311.64550781 147.29052734 C-303.48931684 133.35277576 -293.97252399 120.34543493 -282.91796875 108.5703125 C-281.24897401 106.78055561 -279.69984333 104.98181944 -278.1875 103.0625 C-264.51159647 87.22724328 -244.61789191 75.50804387 -223.8125 73.3125 C-217.68391801 73.01578838 -211.79814714 73.52539299 -205.75 74.5 C-204.9343457 74.63019531 -204.11869141 74.76039063 -203.27832031 74.89453125 C-192.6759555 76.70479144 -182.64835731 79.97463472 -172.8125 84.3125 C-172.54659979 87.26038524 -172.48115961 88.82409914 -174.17016602 91.3137207 C-174.79592529 91.94882568 -175.42168457 92.58393066 -176.06640625 93.23828125 C-176.75669922 93.95306641 -177.44699219 94.66785156 -178.15820312 95.40429688 C-179.25551758 96.50354492 -179.25551758 96.50354492 -180.375 97.625 C-181.79433303 99.07809575 -183.21231045 100.5325169 -184.62890625 101.98828125 C-185.33144531 102.70628906 -186.03398437 103.42429687 -186.7578125 104.1640625 C-189.3241424 106.8474873 -191.75804029 109.62947927 -194.18432617 112.43920898 C-196.62394887 115.24611032 -199.15368434 117.96583617 -201.6875 120.6875 C-205.43539626 124.73319536 -209.17332183 128.78684972 -212.875 132.875 C-213.56722656 133.63941406 -214.25945312 134.40382813 -214.97265625 135.19140625 C-216.68875745 137.16984139 -218.27177055 139.19579692 -219.8125 141.3125 C-202.81015395 153.5290005 -182.1628775 160.10364769 -161.21875 156.734375 C-135.81924201 150.32624225 -114.23391531 129.81538827 -95.35253906 112.61767578 C-93.74677776 111.16039029 -92.13445926 109.71026908 -90.51318359 108.27026367 C-84.34800082 102.78932325 -78.44387506 97.09571077 -72.625 91.25 C-71.77486328 90.40373047 -70.92472656 89.55746094 -70.04882812 88.68554688 C-65.09369904 83.72276508 -60.36952808 78.64091985 -55.8125 73.3125 C-54.75558984 72.10919623 -53.6970187 70.90734916 -52.63671875 69.70703125 C-45.69976982 61.80479933 -39.07961432 53.75728754 -32.8125 45.3125 C-32.31782227 44.65443359 -31.82314453 43.99636719 -31.31347656 43.31835938 C-23.66315973 33.12107552 -16.7981423 22.64960955 -10.37109375 11.640625 C-3.81156035 0.42350671 -3.81156035 0.42350671 0 0 Z " fill="#3EC68F" transform="translate(473.8125,138.6875)"/>
<path d="M0 0 C4.4200083 3.76756134 7.97682972 7.74998526 11.125 12.625 C11.84042969 11.779375 12.55585937 10.93375 13.29296875 10.0625 C25.30340855 -3.76634283 39.60783344 -12.36049507 58.125 -14.375 C76.81778111 -15.35486353 96.28607708 -12.83963804 111.046875 -0.265625 C111.73265625 0.35828125 112.4184375 0.9821875 113.125 1.625 C113.87265625 2.26953125 114.6203125 2.9140625 115.390625 3.578125 C129.04213555 16.11522652 136.25013902 35.38345916 137.29915619 53.65909195 C137.56682585 61.88085392 137.55106124 70.10572745 137.52797651 78.33082795 C137.52029734 81.92797139 137.52744615 85.52509364 137.53213501 89.12223816 C137.53755969 95.14444172 137.53047854 101.16653408 137.51611328 107.1887207 C137.49969625 114.15151571 137.50515346 121.11404838 137.5215925 128.07683736 C137.53518677 134.07544575 137.53714007 140.07397507 137.52927649 146.07259387 C137.52460095 149.64728942 137.52397372 153.22186124 137.53388596 156.79654884 C137.54412797 160.76526852 137.52995255 164.73369047 137.51318359 168.70239258 C137.51925629 169.88723236 137.52532898 171.07207214 137.53158569 172.29281616 C137.52312622 173.36772812 137.51466675 174.44264008 137.50595093 175.55012512 C137.50481985 176.48746396 137.50368877 177.4248028 137.50252342 178.39054585 C137.37794069 179.12791572 137.25335796 179.86528559 137.125 180.625 C133.95598872 182.73767419 133.1491774 182.88055564 129.51953125 182.890625 C128.61783203 182.89320313 127.71613281 182.89578125 126.78710938 182.8984375 C125.37655273 182.88683594 125.37655273 182.88683594 123.9375 182.875 C123.01646484 182.88273438 122.09542969 182.89046875 121.14648438 182.8984375 C111.92710651 182.87226467 104.56530586 181.6130555 97.52734375 175.16015625 C90.58712207 167.91299602 89.6741311 158.87073204 89.75610352 149.22509766 C89.7504538 147.74489388 89.7504538 147.74489388 89.74468994 146.23478699 C89.73829526 144.10963512 89.73855167 141.9844546 89.74487495 139.85930252 C89.75405026 136.48611825 89.74368755 133.11348218 89.72825623 129.74032593 C89.68833612 120.15599331 89.68695015 110.57170668 89.68920898 100.98730469 C89.68926029 95.10770645 89.66999074 89.22840511 89.63987541 83.3488884 C89.62912258 80.04307022 89.64113702 76.73783616 89.65370178 73.43203735 C89.65648331 55.23156955 89.65648331 55.23156955 81.7265625 39.15234375 C75.03173326 32.76776269 67.14062935 29.74622175 58.0234375 29.5625 C48.43699253 29.92171105 40.92518046 32.28969193 34.25 39.375 C23.1003129 53.48919214 24.83346677 72.13196859 24.82003975 89.15642548 C24.81634485 92.92195316 24.79953975 96.68722482 24.77928162 100.45269775 C24.73113527 109.78763546 24.69910845 119.12260611 24.67797852 128.4576416 C24.66003279 136.38242011 24.63077387 144.30695808 24.58393669 152.23163605 C24.57226228 154.7307765 24.56635613 157.22995063 24.56625557 159.72911835 C24.56606473 163.20470707 24.54789368 166.67976647 24.52563477 170.15527344 C24.53021194 171.19207245 24.53478912 172.22887146 24.539505 173.29708862 C24.52985718 174.23881927 24.52020935 175.18054993 24.51026917 176.15081787 C24.50725217 177.3817901 24.50725217 177.3817901 24.50417423 178.63763046 C24.37904674 179.29346241 24.25391924 179.94929436 24.125 180.625 C20.95598872 182.73767419 20.1491774 182.88055564 16.51953125 182.890625 C15.16698242 182.89449219 15.16698242 182.89449219 13.78710938 182.8984375 C12.37655273 182.88683594 12.37655273 182.88683594 10.9375 182.875 C10.01646484 182.88273438 9.09542969 182.89046875 8.14648438 182.8984375 C-1.04024344 182.87235736 -8.51720125 181.65530494 -15.47265625 175.125 C-22.25506067 167.92598597 -23.32407564 159.81591753 -23.24389648 150.24682617 C-23.2495462 148.75221107 -23.2495462 148.75221107 -23.25531006 147.22740173 C-23.26171221 145.07822291 -23.26144118 142.92901573 -23.25512505 140.77983665 C-23.24596201 137.36892852 -23.25629907 133.95856397 -23.27174377 130.54768372 C-23.31169503 120.85495789 -23.31305067 111.16227695 -23.31079102 101.46948242 C-23.31073971 95.5261998 -23.33000975 89.5832109 -23.36012459 83.64000893 C-23.37088123 80.29652495 -23.35885979 76.95361807 -23.34629822 73.6101532 C-23.32296772 55.31677662 -23.32296772 55.31677662 -31.2734375 39.15234375 C-37.75139073 32.97458835 -45.64316667 29.68915123 -54.53125 29.59765625 C-63.26608672 30.07610938 -71.7958105 32.56980707 -78.27734375 38.68359375 C-89.72400545 52.59310687 -88.16649856 70.90852383 -88.17996025 87.83493423 C-88.18365236 91.5670527 -88.20045087 95.29891219 -88.22071838 99.03097534 C-88.26888929 108.28535403 -88.30087174 117.53977325 -88.32202148 126.79425049 C-88.33997648 134.6462664 -88.36926353 142.49809281 -88.41606331 150.35000229 C-88.42773038 152.82598737 -88.43364381 155.30200638 -88.43374443 157.77801895 C-88.43393555 161.22477576 -88.45212769 164.67100116 -88.47436523 168.11767578 C-88.46978806 169.14309982 -88.46521088 170.16852386 -88.460495 171.22502136 C-88.47014282 172.16115768 -88.47979065 173.09729401 -88.48973083 174.0617981 C-88.49274783 175.28227435 -88.49274783 175.28227435 -88.49582577 176.52740669 C-88.96772086 179.13793213 -89.8276425 179.99150902 -91.875 181.625 C-95.1268231 183.25091155 -98.70410038 182.78806852 -102.27734375 182.79296875 C-103.11084854 182.79629715 -103.94435333 182.79962555 -104.80311584 182.80305481 C-106.56755012 182.80812161 -108.331994 182.81046321 -110.09643555 182.81030273 C-112.79817469 182.81248841 -115.49950506 182.83064426 -118.20117188 182.84960938 C-119.9140611 182.85254348 -121.62695227 182.85452816 -123.33984375 182.85546875 C-124.1492894 182.86265427 -124.95873505 182.86983978 -125.79270935 182.87724304 C-129.67745573 182.86139392 -131.56770098 182.82986601 -134.875 180.625 C-135.16956089 178.0608458 -135.26633988 175.73773334 -135.23576355 173.1713562 C-135.23832682 172.3937724 -135.2408901 171.6161886 -135.24353105 170.81504166 C-135.24849385 168.19533474 -135.23193535 165.57619727 -135.21557617 162.95654297 C-135.21473044 161.08435072 -135.21520399 159.21215748 -135.21690369 157.33996582 C-135.21776716 152.24511894 -135.20008458 147.15048241 -135.17918181 142.05568457 C-135.16047351 136.73587443 -135.1586692 131.41605988 -135.15510559 126.09622192 C-135.1457679 116.01685754 -135.12113083 105.93759036 -135.09105712 95.85826886 C-135.05756669 84.3856612 -135.0410406 72.91304899 -135.02597082 61.44040465 C-134.99458275 37.83521581 -134.94178881 14.23011334 -134.875 -9.375 C-131.08272728 -11.27113636 -126.48458787 -10.60331273 -122.3125 -10.625 C-121.34763672 -10.645625 -120.38277344 -10.66625 -119.38867188 -10.6875 C-110.10852528 -10.73762908 -103.13463108 -9.31745837 -96.3125 -2.6875 C-95.46558594 -1.87925781 -94.61867188 -1.07101563 -93.74609375 -0.23828125 C-92.81990234 0.68404297 -92.81990234 0.68404297 -91.875 1.625 C-91.22015625 1.10550781 -90.5653125 0.58601563 -89.890625 0.05078125 C-63.92348174 -19.79134375 -25.9241344 -20.27176593 0 0 Z " fill="#FFFFFF" transform="translate(908.875,98.375)"/>
<path d="M0 0 C1.08345703 -0.01160156 2.16691406 -0.02320312 3.28320312 -0.03515625 C4.32025391 -0.03128906 5.35730469 -0.02742188 6.42578125 -0.0234375 C7.36462158 -0.02005371 8.30346191 -0.01666992 9.27075195 -0.01318359 C11.6875 0.375 11.6875 0.375 13.31726074 1.436203 C15.38905127 4.36764817 15.08065577 7.32656895 15.02807617 10.78393555 C15.02873329 11.91113007 15.02873329 11.91113007 15.02940369 13.06109619 C15.02731367 15.54490137 15.00397326 18.0280315 14.98046875 20.51171875 C14.97487354 22.23378633 14.97060309 23.95585868 14.96760559 25.67793274 C14.95615091 30.21051212 14.92667845 34.74280312 14.89349365 39.27526855 C14.86280615 43.90026956 14.84910308 48.52531716 14.83398438 53.15039062 C14.80180928 62.22538712 14.75060545 71.30016958 14.6875 80.375 C16.11860107 79.54899292 16.11860107 79.54899292 17.57861328 78.70629883 C18.84662452 77.97728034 20.11469401 77.24836317 21.3828125 76.51953125 C22.32314331 75.97625183 22.32314331 75.97625183 23.2824707 75.42199707 C43.3044967 63.931266 66.58321678 62.61867624 88.6875 68.375 C111.93717757 75.69242084 130.86970669 91.05026834 142.6875 112.375 C155.63253871 137.93376015 156.84970836 166.719338 148.5625 193.875 C144.09110715 206.48352219 137.78409363 218.49822407 128.6875 228.375 C127.87796875 229.27605469 127.0684375 230.17710937 126.234375 231.10546875 C104.48841656 254.154913 74.3489084 261.50668748 43.60723877 262.43802261 C33.09801559 262.68200142 22.58510133 262.66410833 12.07373047 262.63574219 C7.74192703 262.62416508 3.41036657 262.63105266 -0.92142868 262.64288712 C-4.2842393 262.65009283 -7.64699146 262.64782691 -11.00980377 262.64263153 C-12.60940836 262.64130087 -14.20901831 262.64292226 -15.80861664 262.64759064 C-18.02327309 262.65265447 -20.23752248 262.64495646 -22.45214844 262.63378906 C-23.70848083 262.63219788 -24.96481323 262.63060669 -26.25921631 262.62896729 C-29.3125 262.375 -29.3125 262.375 -32.3125 260.375 C-32.68969816 258.58409727 -32.68969816 258.58409727 -32.69281673 256.37184715 C-32.70125668 255.52981692 -32.70969662 254.68778668 -32.71839231 253.82024038 C-32.71238227 252.88991353 -32.70637222 251.95958668 -32.70018005 251.00106812 C-32.70556559 250.01678412 -32.71095113 249.03250013 -32.71649987 248.01838934 C-32.73088106 244.69882094 -32.7236506 241.37964563 -32.71655273 238.06005859 C-32.72225117 235.68853431 -32.72921338 233.31701277 -32.73735046 230.94549561 C-32.75348658 225.15845924 -32.75536933 219.37154744 -32.75013756 213.58449332 C-32.74610035 208.87922035 -32.74753408 204.17397947 -32.75288582 199.46870804 C-32.75400845 198.46512305 -32.75400845 198.46512305 -32.75515376 197.44126362 C-32.75668522 196.08211853 -32.75822357 194.72297345 -32.75976873 193.36382838 C-32.77351049 180.60476083 -32.76804567 167.84575452 -32.75658352 155.08668835 C-32.74666223 143.42007866 -32.75956962 131.7536278 -32.78351771 120.08704261 C-32.80792011 108.1087927 -32.81751299 96.13061671 -32.81086498 84.15234244 C-32.80737362 77.42722245 -32.80959854 70.70222445 -32.82711601 63.97712326 C-32.84257719 57.64878523 -32.8386383 51.32075004 -32.81981087 44.99242401 C-32.81612203 42.6704756 -32.81924199 40.3485048 -32.82969666 38.026577 C-32.8428882 34.85431318 -32.83137408 31.68305445 -32.81370544 28.51083374 C-32.82331045 27.59389122 -32.83291546 26.67694871 -32.84281152 25.73222005 C-32.76279201 18.73926679 -30.98232988 13.54402076 -26.453125 8.16796875 C-25.82921875 7.63816406 -25.2053125 7.10835937 -24.5625 6.5625 C-23.94890625 6.01980469 -23.3353125 5.47710937 -22.703125 4.91796875 C-15.33195046 0.16042963 -8.55342587 -0.09325358 0 0 Z M17.6875 120.375 C16.6975 121.035 15.7075 121.695 14.6875 122.375 C14.37167256 125.51243759 14.25016772 128.45628474 14.25512695 131.59814453 C14.2449353 132.5542865 14.23474365 133.51042847 14.22424316 134.49554443 C14.19396918 137.66635894 14.18482524 140.8368721 14.17578125 144.0078125 C14.15894525 146.2021486 14.14079649 148.39647498 14.12138367 150.59078979 C14.07376046 156.37429776 14.04403085 162.15776638 14.01794434 167.94140625 C13.98820086 173.83992283 13.9416493 179.73830366 13.89648438 185.63671875 C13.81031113 197.21607501 13.74302834 208.7954591 13.6875 220.375 C17.73793024 220.40636689 21.78831149 220.42880242 25.83883667 220.44366455 C27.21104161 220.44987335 28.58323857 220.45834325 29.95541382 220.46929932 C53.34925071 220.6511361 74.79836138 218.72986637 92.4375 202.0625 C104.00340775 189.96623317 108.08461635 174.60725122 107.89453125 158.15625 C107.1040481 143.71874635 102.19731155 129.31873326 91.34765625 119.34375 C68.73907825 102.61141033 39.93586915 104.26736968 17.6875 120.375 Z " fill="#FFFFFF" transform="translate(603.3125,18.625)"/>
<path d="M0 0 C1.08732422 0.00322266 2.17464844 0.00644531 3.29492188 0.00976562 C4.35517578 -0.00634766 5.41542969 -0.02246094 6.5078125 -0.0390625 C14.60131777 -0.04405541 21.14582855 0.97718537 27.98242188 5.44726562 C35.8538987 13.67653685 36.47429532 21.68795377 36.43945312 32.63867188 C36.45259025 34.10556574 36.46790062 35.57244159 36.48527527 37.03929138 C36.52490379 40.87140567 36.53530121 44.70304439 36.53930664 48.53533936 C36.5486803 52.45729803 36.5861199 56.37898211 36.62109375 60.30078125 C36.68544342 67.97461213 36.71886854 75.64815889 36.73242188 83.32226562 C37.75031548 82.49442314 37.75031548 82.49442314 38.78877258 81.64985657 C39.68323593 80.92727158 40.57769928 80.20468658 41.49926758 79.46020508 C42.38411331 78.74331009 43.26895905 78.0264151 44.18061829 77.28779602 C59.6562691 65.36765366 79.86624942 63.80894268 98.64648438 65.72070312 C113.1821099 68.07700453 125.58290438 74.700238 135.73242188 85.32226562 C136.35246094 85.92296875 136.9725 86.52367188 137.61132812 87.14257812 C149.47413329 99.403464 155.82053432 118.15230041 155.87286377 135.00360107 C155.87857391 136.11121292 155.88428406 137.21882477 155.89016724 138.36000061 C155.89184402 140.16035011 155.89184402 140.16035011 155.89355469 141.99707031 C155.89851959 143.27245163 155.9034845 144.54783295 155.90859985 145.86186218 C155.92166245 149.34706672 155.92815533 152.83225206 155.93261051 156.31747723 C155.93554779 158.49481907 155.93965355 160.67215572 155.94411469 162.84949493 C155.9577659 169.66250131 155.96744733 176.47549575 155.97131658 183.28851485 C155.9758086 191.15402049 155.99341908 199.01935332 156.02231717 206.88480639 C156.04389368 212.96813908 156.05401849 219.05142296 156.05535769 225.13479352 C156.05640751 228.76777382 156.06235397 232.40059114 156.08017731 236.03353119 C156.09963514 240.07747527 156.09538532 244.1210535 156.08886719 248.16503906 C156.09808197 249.37336899 156.10729675 250.58169891 156.11679077 251.8266449 C156.10843704 253.47114372 156.10843704 253.47114372 156.09991455 255.14886475 C156.10138111 256.1052673 156.10284767 257.06166985 156.10435867 258.04705429 C155.98161953 258.79787403 155.85888039 259.54869377 155.73242188 260.32226562 C152.5634106 262.43493981 151.75659927 262.57782126 148.12695312 262.58789062 C146.7744043 262.59175781 146.7744043 262.59175781 145.39453125 262.59570312 C144.45416016 262.58796875 143.51378906 262.58023437 142.54492188 262.57226562 C141.62388672 262.58 140.70285156 262.58773438 139.75390625 262.59570312 C130.12808241 262.56837644 122.08151722 260.94345058 114.73242188 254.32226562 C110.81358963 248.95132452 108.61731497 243.66073031 108.59439087 236.9982605 C108.58893753 236.14055557 108.58348419 235.28285065 108.5778656 234.39915466 C108.57682327 233.46612015 108.57578094 232.53308563 108.57470703 231.57177734 C108.56962631 230.5826384 108.56454559 229.59349945 108.55931091 228.5743866 C108.54861269 226.42620605 108.53999036 224.27801439 108.53319168 222.12981796 C108.52138816 218.72419196 108.50192979 215.31869193 108.48007202 211.91311646 C108.41851636 202.22988102 108.36448741 192.54665784 108.33105469 182.86328125 C108.31004987 176.93874438 108.27469683 171.01443635 108.23029709 165.09003067 C108.21617989 162.83754301 108.20742437 160.58501485 108.20424271 158.3324852 C108.19930602 155.17112225 108.17607558 152.01036076 108.14892578 148.84912109 C108.15193192 147.92823196 108.15493805 147.00734283 108.15803528 146.05854797 C108.0275941 135.77394532 105.25913472 126.2911155 98.16992188 118.63476562 C90.58291736 111.60976144 81.48757265 108.95266806 71.29101562 109.10742188 C61.18722395 109.95583186 52.44384686 113.09133131 45.48242188 120.57226562 C34.62614727 134.34911411 36.44064448 153.10493403 36.42746162 169.66849518 C36.42376621 173.40041881 36.40695982 177.13208423 36.38670349 180.86395264 C36.33856129 190.11541192 36.30652975 199.36691143 36.28540039 208.61846924 C36.26745443 216.47277284 36.23819551 224.32688667 36.19135857 232.18108368 C36.17968446 234.65789525 36.17377801 237.13474081 36.17367744 239.6115799 C36.1734866 243.05603744 36.1553154 246.49996089 36.13305664 249.94433594 C36.13763382 250.97178421 36.142211 251.99923248 36.14692688 253.05781555 C36.13727905 253.99113205 36.12763123 254.92444855 36.11769104 255.88604736 C36.11467405 257.10595808 36.11467405 257.10595808 36.11159611 258.35051346 C35.98646861 259.00119167 35.86134111 259.65186989 35.73242188 260.32226562 C31.78306674 262.95516905 28.37736435 262.60971488 23.79492188 262.58789062 C22.91843994 262.58980408 22.04195801 262.59171753 21.13891602 262.59368896 C19.28629265 262.59504961 17.43365972 262.59136156 15.58105469 262.58300781 C12.74327199 262.57230654 9.90612235 262.58290711 7.06835938 262.59570312 C5.26887881 262.59438151 3.46939864 262.59181907 1.66992188 262.58789062 C0.81986572 262.59193909 -0.03019043 262.59598755 -0.90600586 262.60015869 C-6.92267564 262.55220062 -6.92267564 262.55220062 -10.26757812 260.32226562 C-10.64247495 258.42186642 -10.64247495 258.42186642 -10.64230824 256.05247498 C-10.64951478 255.15101022 -10.65672132 254.24954546 -10.66414624 253.32076359 C-10.65677196 252.32408885 -10.64939767 251.32741411 -10.64179993 250.30053711 C-10.64776154 248.71975577 -10.64776154 248.71975577 -10.65384358 247.10703945 C-10.6635189 243.55234491 -10.65161674 239.99804317 -10.63989258 236.44335938 C-10.64231881 233.90446829 -10.64603649 231.36557815 -10.6509552 228.82669067 C-10.65940955 222.63257185 -10.6538288 216.43860036 -10.64169226 210.24449182 C-10.62809437 203.03698147 -10.62970816 195.82949903 -10.63182559 188.62197912 C-10.63501792 175.76521476 -10.62333379 162.90850575 -10.60375977 150.05175781 C-10.58475456 137.56541254 -10.57767191 125.07913214 -10.58325195 112.59277344 C-10.58930471 99.00837344 -10.58914192 85.424002 -10.57776612 71.83960438 C-10.57655878 70.3921032 -10.5753528 68.94460201 -10.57414818 67.49710083 C-10.57324287 66.42869726 -10.57324287 66.42869726 -10.57231927 65.33870977 C-10.56843389 60.31018434 -10.56883614 55.28166952 -10.57073402 50.25314331 C-10.57307319 43.48988095 -10.56455426 36.72671442 -10.54867363 29.96346664 C-10.54441503 27.47452007 -10.54359072 24.98556503 -10.54636383 22.49661636 C-10.54956362 19.11231567 -10.54055963 15.72826873 -10.52827454 12.34399414 C-10.53205386 11.3473194 -10.53583318 10.35064466 -10.53972703 9.32376766 C-10.53389484 8.4223029 -10.52806265 7.52083815 -10.52205372 6.59205627 C-10.52118694 5.8101571 -10.52032016 5.02825792 -10.51942712 4.22266483 C-9.79132134 -1.27146727 -4.23105412 0.02896179 0 0 Z " fill="#FFFFFF" transform="translate(1078.267578125,18.677734375)"/>
<path d="M0 0 C2.97 0 5.94 0 9 0 C12.3 6.27 15.6 12.54 19 19 C20.98918912 16.34774784 22.54111639 14.18410654 24.04296875 11.328125 C24.39423828 10.66425781 24.74550781 10.00039063 25.10742188 9.31640625 C25.46384766 8.63449219 25.82027344 7.95257813 26.1875 7.25 C26.55552734 6.55261719 26.92355469 5.85523438 27.30273438 5.13671875 C28.20490847 3.42610293 29.10287712 1.7132703 30 0 C32.97 0 35.94 0 39 0 C39 14.19 39 28.38 39 43 C36.69 43 34.38 43 32 43 C31.67 33.43 31.34 23.86 31 14 C27.7 20.27 24.4 26.54 21 33 C20.01 33 19.02 33 18 33 C16.51762714 30.39761208 15.03899869 27.79321772 13.5625 25.1875 C13.14162109 24.44951172 12.72074219 23.71152344 12.28710938 22.95117188 C11.88427734 22.23896484 11.48144531 21.52675781 11.06640625 20.79296875 C10.69459229 20.1383667 10.32277832 19.48376465 9.93969727 18.80932617 C9 17 9 17 8 14 C7.67 23.57 7.34 33.14 7 43 C4.69 43 2.38 43 0 43 C0 28.81 0 14.62 0 0 Z " fill="#FFFFFF" transform="translate(748,318)"/>
<path d="M0 0 C3.83625 -0.103125 7.6725 -0.20625 11.625 -0.3125 C13.42251709 -0.38078003 13.42251709 -0.38078003 15.25634766 -0.45043945 C24.07914032 -0.56526169 24.07914032 -0.56526169 27.70703125 2.23828125 C30.9368605 6.12838223 31.41256325 9.04027226 31 14 C29.6875 17.0625 29.6875 17.0625 28 19 C27.34 19 26.68 19 26 19 C26 19.66 26 20.32 26 21 C26.61875 21.268125 27.2375 21.53625 27.875 21.8125 C30 23 30 23 32 26 C32.80103186 29.97435037 32.84566976 33.55942691 30.76171875 37.109375 C28.28256697 40.08681783 26.73253266 41.75582245 23 43 C21.22686149 43.08209792 19.45079225 43.10746294 17.67578125 43.09765625 C16.28613159 43.09390991 16.28613159 43.09390991 14.8684082 43.09008789 C13.6949585 43.08098389 12.52150879 43.07187988 11.3125 43.0625 C7.579375 43.041875 3.84625 43.02125 0 43 C0 28.81 0 14.62 0 0 Z M8 7 C8 10.3 8 13.6 8 17 C10.14576637 17.02685938 12.29162645 17.04633088 14.4375 17.0625 C16.22994141 17.07990234 16.22994141 17.07990234 18.05859375 17.09765625 C20.88873341 17.33901792 20.88873341 17.33901792 22 16 C22.16053815 14.12678052 22.16053815 14.12678052 22.125 12 C22.12757813 11.278125 22.13015625 10.55625 22.1328125 9.8125 C22.19695276 7.97910585 22.19695276 7.97910585 21 7 C18.81360547 6.92741054 16.62499611 6.91626217 14.4375 6.9375 C13.23996094 6.94652344 12.04242187 6.95554687 10.80859375 6.96484375 C9.41833984 6.98224609 9.41833984 6.98224609 8 7 Z M8 24 C8 27.96 8 31.92 8 36 C10.10353495 36.0810206 12.20795952 36.13919907 14.3125 36.1875 C15.48425781 36.22230469 16.65601563 36.25710938 17.86328125 36.29296875 C20.94615592 36.25985369 20.94615592 36.25985369 22.89453125 34.7109375 C24.7495968 31.83984665 24.35984406 29.29857052 24 26 C20.36804504 23.57869669 18.61650652 23.78977215 14.3125 23.875 C13.13300781 23.89304687 11.95351563 23.91109375 10.73828125 23.9296875 C9.38283203 23.96449219 9.38283203 23.96449219 8 24 Z " fill="#FFFFFF" transform="translate(571,318)"/>
<path d="M0 0 C2.64 0 5.28 0 8 0 C8 5.61 8 11.22 8 17 C13.94 17 19.88 17 26 17 C26 11.39 26 5.78 26 0 C28.64 0 31.28 0 34 0 C34 14.19 34 28.38 34 43 C31.36 43 28.72 43 26 43 C26 36.73 26 30.46 26 24 C20.06 24 14.12 24 8 24 C8 30.27 8 36.54 8 43 C5.36 43 2.72 43 0 43 C0 28.81 0 14.62 0 0 Z " fill="#FFFFFF" transform="translate(894,318)"/>
<path d="M0 0 C2.64 0 5.28 0 8 0 C8 15.18 8 30.36 8 46 C5.36 46 2.72 46 0 46 C-0.33 45.34 -0.66 44.68 -1 44 C-1.99 44.66 -2.98 45.32 -4 46 C-8.87604961 46.78512663 -12.76579641 46.81404918 -16.9375 44.0625 C-21.19858199 37.73543886 -22.65733025 31.95336284 -21.58203125 24.3671875 C-20.36083159 19.40042916 -18.32626865 15.8841791 -14 13 C-11.625 12.734375 -11.625 12.734375 -9 12.75 C-8.13375 12.74484375 -7.2675 12.7396875 -6.375 12.734375 C-4 13 -4 13 -1 15 C-0.67 10.05 -0.34 5.1 0 0 Z M-13 22 C-14.50118904 27.42149162 -14.65538892 32.94211635 -12 38 C-9.44401698 40.09955748 -8.19305361 40.01544429 -4.875 39.75 C-1.89402202 39.23116835 -1.89402202 39.23116835 0 37 C0.27899696 34.4655329 0.41602263 32.09921582 0.4375 29.5625 C0.47037109 28.88123047 0.50324219 28.19996094 0.53710938 27.49804688 C0.61729125 25.24081308 0.61729125 25.24081308 0 22 C-4.54909862 18.1647833 -8.52172872 17.9931257 -13 22 Z " fill="#FFFFFF" transform="translate(972,315)"/>
<path d="M0 0 C2.64 0 5.28 0 8 0 C8.33 4.95 8.66 9.9 9 15 C9.99 14.34 10.98 13.68 12 13 C15.06526351 12.45468158 17.93408329 12.45674107 21 13 C23.75569447 15.18159145 25.43588747 16.87177494 27 20 C27.08510205 21.9593604 27.10717656 23.92162794 27.09765625 25.8828125 C27.09443359 27.04941406 27.09121094 28.21601563 27.08789062 29.41796875 C27.07951172 30.64128906 27.07113281 31.86460937 27.0625 33.125 C27.05798828 34.35605469 27.05347656 35.58710938 27.04882812 36.85546875 C27.0370133 39.90369392 27.02054028 42.95182314 27 46 C24.36 46 21.72 46 19 46 C18.505 33.625 18.505 33.625 18 21 C13.02923527 19.47376519 13.02923527 19.47376519 9 22 C8.67 29.92 8.34 37.84 8 46 C5.36 46 2.72 46 0 46 C0 30.82 0 15.64 0 0 Z " fill="#FFFFFF" transform="translate(1207,315)"/>
<path d="M0 0 C4.0732908 3.94600046 4.91742708 7.19449334 5.1796875 12.73046875 C5.21651553 16.47006647 5.12986519 20.20026855 5 23.9375 C5.99 24.2675 6.98 24.5975 8 24.9375 C8 27.2475 8 29.5575 8 31.9375 C3.32538149 32.26363618 0.83325617 31.64332788 -3 28.9375 C-3.55816406 29.4221875 -4.11632812 29.906875 -4.69140625 30.40625 C-8.57029026 32.97904617 -12.51287806 32.69139448 -17 31.9375 C-20.11199254 29.94582478 -21.61304528 28.66659499 -22.43359375 25 C-22.67110222 21.19986456 -22.21874465 19.2920172 -20.1875 16 C-16.60175364 12.61915343 -13.53915463 12.82417576 -8.8125 12.875 C-7.18248047 12.88853516 -7.18248047 12.88853516 -5.51953125 12.90234375 C-4.68808594 12.91394531 -3.85664062 12.92554688 -3 12.9375 C-3.96776098 9.14202079 -3.96776098 9.14202079 -6 5.9375 C-9.47256915 5.62882719 -11.3872288 5.55048661 -14.375 7.4375 C-14.91125 7.9325 -15.4475 8.4275 -16 8.9375 C-17.32 8.2775 -18.64 7.6175 -20 6.9375 C-20 2.9375 -20 2.9375 -18.6875 1.25 C-13.75856144 -2.58361888 -5.60301475 -1.98440106 0 0 Z M-14 18.9375 C-14.04254356 20.93704746 -14.04080783 22.93791636 -14 24.9375 C-12.83697846 26.32278649 -12.83697846 26.32278649 -9.625 26.125 C-5.90324609 26.24203853 -5.90324609 26.24203853 -3 23.9375 C-2.7497843 20.85384129 -2.7497843 20.85384129 -3 17.9375 C-4.45823212 17.9104957 -5.91660675 17.89110213 -7.375 17.875 C-8.59316406 17.85759766 -8.59316406 17.85759766 -9.8359375 17.83984375 C-12.04937142 17.79283666 -12.04937142 17.79283666 -14 18.9375 Z " fill="#FFFFFF" transform="translate(849,329.0625)"/>
<path d="M0 0 C2.94112515 2.75730482 4.74884946 5.79264998 5.23974609 9.86279297 C5.29394961 11.99960483 5.26282241 14.11393364 5.1875 16.25 C5.16719727 17.35408203 5.16719727 17.35408203 5.14648438 18.48046875 C5.11144869 20.27896743 5.05765288 22.07708422 5 23.875 C5.99 24.205 6.98 24.535 8 24.875 C8 27.185 8 29.495 8 31.875 C3.32538149 32.20113618 0.83325617 31.58082788 -3 28.875 C-3.55816406 29.3596875 -4.11632813 29.844375 -4.69140625 30.34375 C-8.57029026 32.91654617 -12.51287806 32.62889448 -17 31.875 C-20.11199254 29.88332478 -21.61304528 28.60409499 -22.43359375 24.9375 C-22.67110222 21.13736456 -22.21874465 19.2295172 -20.1875 15.9375 C-16.60175364 12.55665343 -13.53915463 12.76167576 -8.8125 12.8125 C-7.18248047 12.82603516 -7.18248047 12.82603516 -5.51953125 12.83984375 C-4.68808594 12.85144531 -3.85664062 12.86304688 -3 12.875 C-3.33 10.565 -3.66 8.255 -4 5.875 C-9.53069113 5.43566743 -9.53069113 5.43566743 -14.5 7.375 C-14.995 7.87 -15.49 8.365 -16 8.875 C-17.32 8.215 -18.64 7.555 -20 6.875 C-20 5.555 -20 4.235 -20 2.875 C-14.49421375 -2.48198122 -7.02282064 -2.63355774 0 0 Z M-14 18.875 C-14.04254356 20.87454746 -14.04080783 22.87541636 -14 24.875 C-12.83697846 26.26028649 -12.83697846 26.26028649 -9.625 26.0625 C-5.90324609 26.17953853 -5.90324609 26.17953853 -3 23.875 C-2.7497843 20.79134129 -2.7497843 20.79134129 -3 17.875 C-4.45823212 17.8479957 -5.91660675 17.82860213 -7.375 17.8125 C-8.59316406 17.79509766 -8.59316406 17.79509766 -9.8359375 17.77734375 C-12.04937142 17.73033666 -12.04937142 17.73033666 -14 18.875 Z " fill="#FFFFFF" transform="translate(1194,329.125)"/>
<path d="M0 0 C3.2262505 1.63738277 5.35978168 3.71956336 7 7 C7.08342159 8.44848582 7.10732861 9.90070869 7.09765625 11.3515625 C7.09443359 12.20234375 7.09121094 13.053125 7.08789062 13.9296875 C7.07951172 14.81914062 7.07113281 15.70859375 7.0625 16.625 C7.05798828 17.5221875 7.05347656 18.419375 7.04882812 19.34375 C7.03702591 21.56256648 7.02056155 23.78125018 7 26 C7.99 26 8.98 26 10 26 C10 28.31 10 30.62 10 33 C4.375 33.25 4.375 33.25 1 31 C1 30.34 1 29.68 1 29 C0.34 29 -0.32 29 -1 29 C-1.33 29.99 -1.66 30.98 -2 32 C-5.71323416 33.85661708 -9.94713442 33.43969768 -14 33 C-17.0625 31.5 -17.0625 31.5 -19 29 C-20.32871606 24.9971384 -20.4277483 22.03560115 -18.8125 18.125 C-16.86115073 15.8372112 -15.77994057 15.06810752 -13 14 C-9.984375 13.8046875 -9.984375 13.8046875 -6.75 13.875 C-5.67234375 13.89304687 -4.5946875 13.91109375 -3.484375 13.9296875 C-2.25460937 13.96449219 -2.25460937 13.96449219 -1 14 C-1.33 12.02 -1.66 10.04 -2 8 C-6.89895217 6.81503452 -6.89895217 6.81503452 -11.4375 8.4375 C-11.953125 8.953125 -12.46875 9.46875 -13 10 C-15 9 -17 8 -19 7 C-19 6.34 -19 5.68 -19 5 C-18.34 5 -17.68 5 -17 5 C-17 4.34 -17 3.68 -17 3 C-11.71633957 -0.95547423 -6.35507992 -0.94467404 0 0 Z M-12 21 C-12.2500773 23.54190002 -12.2500773 23.54190002 -12 26 C-10.10511048 27.89488952 -7.42860854 27.18019112 -4.91015625 27.23046875 C-2.7587364 27.1702792 -2.7587364 27.1702792 -1 25 C-0.83318891 21.91652174 -0.83318891 21.91652174 -1 19 C-2.45792884 18.94600264 -3.91642712 18.90720823 -5.375 18.875 C-6.59316406 18.84019531 -6.59316406 18.84019531 -7.8359375 18.8046875 C-10.21342243 18.78629949 -10.21342243 18.78629949 -12 21 Z " fill="#FFFFFF" transform="translate(1068,328)"/>
<path d="M0 0 C3.47892069 1.69498551 4.82616446 2.7392467 7 6 C7.22705078 8.17651367 7.22705078 8.17651367 7.1953125 10.66796875 C7.18886719 11.56064453 7.18242188 12.45332031 7.17578125 13.37304688 C7.15902344 14.30181641 7.14226563 15.23058594 7.125 16.1875 C7.11597656 17.12787109 7.10695313 18.06824219 7.09765625 19.03710938 C7.07409056 21.35832968 7.04119116 23.67903644 7 26 C8.32 26 9.64 26 11 26 C11 28.31 11 30.62 11 33 C4.6 33.36923077 4.6 33.36923077 1.5625 31.5 C1.046875 31.005 0.53125 30.51 0 30 C-0.55816406 30.4846875 -1.11632812 30.969375 -1.69140625 31.46875 C-5.57365384 34.04377717 -9.50934274 33.74723376 -14 33 C-17.125 31.0625 -17.125 31.0625 -19 28 C-19.74427661 24.80941886 -19.77229997 22.18717825 -19 19 C-16.2766176 15.18726464 -16.2766176 15.18726464 -13 14 C-8.63243178 13.60624533 -4.37149044 13.70813491 0 14 C-0.66 12.02 -1.32 10.04 -2 8 C-6.89895217 6.81503452 -6.89895217 6.81503452 -11.4375 8.4375 C-11.953125 8.953125 -12.46875 9.46875 -13 10 C-14.32 9.34 -15.64 8.68 -17 8 C-17 4 -17 4 -15.25 1.75 C-10.36931203 -0.87806275 -5.43572343 -0.80234747 0 0 Z M-12 21 C-11.62095792 24.29075996 -11.62095792 24.29075996 -10 27 C-5.31877614 27.4384576 -5.31877614 27.4384576 -1.0625 25.8125 C0.32851983 23.43958382 0.21917317 21.70313576 0 19 C-1.4370809 18.94577053 -2.87475462 18.90710277 -4.3125 18.875 C-5.51326172 18.84019531 -5.51326172 18.84019531 -6.73828125 18.8046875 C-9.28388576 18.84182678 -9.28388576 18.84182678 -12 21 Z " fill="#FFFFFF" transform="translate(1005,328)"/>
<path d="M0 0 C2.2433866 1.46829926 3.77335345 2.76155065 4.98046875 5.17578125 C5.06419534 6.69726451 5.08776902 8.22233903 5.078125 9.74609375 C5.07490234 10.64199219 5.07167969 11.53789062 5.06835938 12.4609375 C5.05998047 13.39808594 5.05160156 14.33523438 5.04296875 15.30078125 C5.03845703 16.24566406 5.03394531 17.19054687 5.02929688 18.1640625 C5.01749232 20.50136512 5.00102634 22.83854186 4.98046875 25.17578125 C6.30046875 25.17578125 7.62046875 25.17578125 8.98046875 25.17578125 C8.98046875 27.48578125 8.98046875 29.79578125 8.98046875 32.17578125 C4.30585024 32.50191743 1.81372492 31.88160913 -2.01953125 29.17578125 C-2.57769531 29.66046875 -3.13585937 30.14515625 -3.7109375 30.64453125 C-7.59318509 33.21955842 -11.52887399 32.92301501 -16.01953125 32.17578125 C-19.14453125 30.23828125 -19.14453125 30.23828125 -21.01953125 27.17578125 C-21.63777964 24.04555065 -21.66254987 21.30318998 -21.01953125 18.17578125 C-18.82121761 15.1436245 -17.56989931 14.35923727 -14.01953125 13.17578125 C-11.95808018 13.10679025 -9.89451724 13.09110398 -7.83203125 13.11328125 C-6.20201172 13.12681641 -6.20201172 13.12681641 -4.5390625 13.140625 C-3.70761719 13.15222656 -2.87617187 13.16382813 -2.01953125 13.17578125 C-2.98729223 9.38030204 -2.98729223 9.38030204 -5.01953125 6.17578125 C-8.4921004 5.86710844 -10.40676005 5.78876786 -13.39453125 7.67578125 C-13.93078125 8.17078125 -14.46703125 8.66578125 -15.01953125 9.17578125 C-16.33953125 8.51578125 -17.65953125 7.85578125 -19.01953125 7.17578125 C-19.01953125 3.17578125 -19.01953125 3.17578125 -17.70703125 1.48828125 C-13.18740831 -2.02698104 -5.18473546 -2.11601389 0 0 Z M-13.01953125 19.17578125 C-13.06207481 21.17532871 -13.06033908 23.17619761 -13.01953125 25.17578125 C-11.85575223 26.55720681 -11.85575223 26.55720681 -8.64453125 26.42578125 C-5.15802266 26.46618744 -5.15802266 26.46618744 -3.08203125 24.98828125 C-1.69101142 22.61536507 -1.80035808 20.87891701 -2.01953125 18.17578125 C-3.47776337 18.14877695 -4.936138 18.12938338 -6.39453125 18.11328125 C-7.61269531 18.09587891 -7.61269531 18.09587891 -8.85546875 18.078125 C-11.06890267 18.03111791 -11.06890267 18.03111791 -13.01953125 19.17578125 Z " fill="#FFFFFF" transform="translate(629.01953125,328.82421875)"/>
<path d="M0 0 C2.2433866 1.46829926 3.77335345 2.76155065 4.98046875 5.17578125 C5.06419534 6.69726451 5.08776902 8.22233903 5.078125 9.74609375 C5.07490234 10.64199219 5.07167969 11.53789062 5.06835938 12.4609375 C5.05998047 13.39808594 5.05160156 14.33523438 5.04296875 15.30078125 C5.03845703 16.24566406 5.03394531 17.19054687 5.02929688 18.1640625 C5.01749232 20.50136512 5.00102634 22.83854186 4.98046875 25.17578125 C6.30046875 25.17578125 7.62046875 25.17578125 8.98046875 25.17578125 C8.98046875 27.48578125 8.98046875 29.79578125 8.98046875 32.17578125 C4.30585024 32.50191743 1.81372492 31.88160913 -2.01953125 29.17578125 C-2.57769531 29.66046875 -3.13585937 30.14515625 -3.7109375 30.64453125 C-7.58982151 33.21732742 -11.53240931 32.92967573 -16.01953125 32.17578125 C-19.13152379 30.18410603 -20.63257653 28.90487624 -21.453125 25.23828125 C-21.69063347 21.43814581 -21.2382759 19.53029845 -19.20703125 16.23828125 C-15.62128489 12.85743468 -12.55868588 13.06245701 -7.83203125 13.11328125 C-6.20201172 13.12681641 -6.20201172 13.12681641 -4.5390625 13.140625 C-3.70761719 13.15222656 -2.87617187 13.16382813 -2.01953125 13.17578125 C-2.98729223 9.38030204 -2.98729223 9.38030204 -5.01953125 6.17578125 C-8.4921004 5.86710844 -10.40676005 5.78876786 -13.39453125 7.67578125 C-13.93078125 8.17078125 -14.46703125 8.66578125 -15.01953125 9.17578125 C-16.33953125 8.51578125 -17.65953125 7.85578125 -19.01953125 7.17578125 C-19.01953125 3.17578125 -19.01953125 3.17578125 -17.70703125 1.48828125 C-13.18740831 -2.02698104 -5.18473546 -2.11601389 0 0 Z M-13.01953125 19.17578125 C-13.06207481 21.17532871 -13.06033908 23.17619761 -13.01953125 25.17578125 C-11.85650971 26.56106774 -11.85650971 26.56106774 -8.64453125 26.36328125 C-4.92277734 26.48031978 -4.92277734 26.48031978 -2.01953125 24.17578125 C-1.76931555 21.09212254 -1.76931555 21.09212254 -2.01953125 18.17578125 C-3.47776337 18.14877695 -4.936138 18.12938338 -6.39453125 18.11328125 C-7.61269531 18.09587891 -7.61269531 18.09587891 -8.85546875 18.078125 C-11.06890267 18.03111791 -11.06890267 18.03111791 -13.01953125 19.17578125 Z " fill="#FFFFFF" transform="translate(815.01953125,328.82421875)"/>
<path d="M0 0 C2.64 0 5.28 0 8 0 C8.01458252 0.71655762 8.02916504 1.43311523 8.04418945 2.17138672 C8.11849 5.40647983 8.21520861 8.64052019 8.3125 11.875 C8.33505859 13.00292969 8.35761719 14.13085938 8.38085938 15.29296875 C8.41630859 16.36933594 8.45175781 17.44570313 8.48828125 18.5546875 C8.51446533 19.54968262 8.54064941 20.54467773 8.56762695 21.56982422 C8.78165161 22.77276123 8.78165161 22.77276123 9 24 C11.76988076 26.31543207 11.76988076 26.31543207 14.625 25.6875 C16.93501965 25.2258486 16.93501965 25.2258486 18 24 C18.15764405 22.22130274 18.25100677 20.43681524 18.31640625 18.65234375 C18.35830078 17.57275391 18.40019531 16.49316406 18.44335938 15.38085938 C18.48267578 14.24455078 18.52199219 13.10824219 18.5625 11.9375 C18.62727539 10.22723633 18.62727539 10.22723633 18.69335938 8.48242188 C18.79982839 5.65507805 18.90184207 2.82764262 19 0 C21.64 0 24.28 0 27 0 C27 10.89 27 21.78 27 33 C24.36 33 21.72 33 19 33 C18.67 32.34 18.34 31.68 18 31 C17.01 31.66 16.02 32.32 15 33 C11.93421943 33.5454104 9.0670768 33.53808365 6 33 C2.71824682 30.47031526 1.30756223 28.92268669 0 25 C-0.08266486 23.08093083 -0.10740663 21.15910526 -0.09765625 19.23828125 C-0.09443359 18.12001953 -0.09121094 17.00175781 -0.08789062 15.84960938 C-0.07951172 14.68236328 -0.07113281 13.51511719 -0.0625 12.3125 C-0.05573242 10.54422852 -0.05573242 10.54422852 -0.04882812 8.74023438 C-0.03703273 5.82677211 -0.0205727 2.91341137 0 0 Z " fill="#FFFFFF" transform="translate(1105,328)"/>
<path d="M0 0 C2.31 0 4.62 0 7 0 C9.64 7.26 12.28 14.52 15 22 C17.2619525 15.13499057 17.2619525 15.13499057 19.51733398 8.26782227 C19.79907471 7.41760498 20.08081543 6.5673877 20.37109375 5.69140625 C20.65911865 4.81685791 20.94714355 3.94230957 21.24389648 3.04125977 C22 1 22 1 23 0 C25.33297433 -0.04092937 27.66705225 -0.04241723 30 0 C29.34978853 4.84591564 28.00833907 9.29175812 26.3828125 13.8828125 C26.12498993 14.61950165 25.86716736 15.3561908 25.60153198 16.11520386 C25.057668 17.66411287 24.51124589 19.21212579 23.96240234 20.75927734 C23.12618563 23.12165052 22.30292276 25.48827426 21.48046875 27.85546875 C20.94869586 29.36485808 20.41616928 30.87398213 19.8828125 32.3828125 C19.63894806 33.08705353 19.39508362 33.79129456 19.14382935 34.51687622 C17.86080693 38.09856757 16.64237195 41.21896131 14 44 C10.52674819 45.1577506 7.63932552 45.06866652 4 45 C4 42.69 4 40.38 4 38 C5.98 38 7.96 38 10 38 C9.48776611 30.43756511 7.01957392 23.83587512 4.4375 16.75 C3.5971827 14.43434566 2.76229668 12.11671113 1.93359375 9.796875 C1.56290771 8.77948242 1.19222168 7.76208984 0.81030273 6.71386719 C0 4 0 4 0 0 Z " fill="#FFFFFF" transform="translate(1017,328)"/>
<path d="M0 0 C2.31 0 4.62 0 7 0 C7.02505615 0.65073486 7.0501123 1.30146973 7.07592773 1.97192383 C7.19193702 4.91898046 7.31464115 7.8657213 7.4375 10.8125 C7.47681641 11.83666016 7.51613281 12.86082031 7.55664062 13.91601562 C7.59853516 14.89892578 7.64042969 15.88183594 7.68359375 16.89453125 C7.72025146 17.80050049 7.75690918 18.70646973 7.79467773 19.63989258 C7.9208205 22.15048782 7.9208205 22.15048782 9 25 C13.19589427 26.16552619 13.82091936 26.08954032 18 24 C18.33 16.08 18.66 8.16 19 0 C21.64 0 24.28 0 27 0 C27 10.89 27 21.78 27 33 C24.36 33 21.72 33 19 33 C18.67 32.34 18.34 31.68 18 31 C17.01 31.66 16.02 32.32 15 33 C10.40728797 33.73965025 6.97537911 33.60961194 3 31.125 C-0.26282474 27.65824871 -0.11951483 25.57617273 -0.09765625 20.8984375 C-0.09443359 19.68671875 -0.09121094 18.475 -0.08789062 17.2265625 C-0.07951172 15.95554687 -0.07113281 14.68453125 -0.0625 13.375 C-0.05798828 12.09625 -0.05347656 10.8175 -0.04882812 9.5 C-0.03701203 6.33328708 -0.02053815 3.16666644 0 0 Z " fill="#FFFFFF" transform="translate(681,328)"/>
<path d="M0 0 C2.31 0 4.62 0 7 0 C7 2.64 7 5.28 7 8 C8.98 8 10.96 8 13 8 C13 10.31 13 12.62 13 15 C11.02 15 9.04 15 7 15 C7 21.27 7 27.54 7 34 C8.98 34 10.96 34 13 34 C13 36.31 13 38.62 13 41 C11.60696395 41.13657216 10.20993879 41.23271149 8.8125 41.3125 C8.03519531 41.37050781 7.25789063 41.42851562 6.45703125 41.48828125 C2.54365515 40.7105833 1.28376336 39.24873379 -1 36 C-1.60003193 32.37339659 -1.47240135 28.85047096 -1.3125 25.1875 C-1.27866211 23.71893555 -1.27866211 23.71893555 -1.24414062 22.22070312 C-1.18539727 19.81222545 -1.10332129 17.40690922 -1 15 C-2.65 15 -4.3 15 -6 15 C-6 12.69 -6 10.38 -6 8 C-4.02 8 -2.04 8 0 8 C0 5.36 0 2.72 0 0 Z " fill="#FFFFFF" transform="translate(1086,320)"/>
<path d="M0 0 C2.31 0 4.62 0 7 0 C7 2.64 7 5.28 7 8 C9.31 8 11.62 8 14 8 C14 10.31 14 12.62 14 15 C11.69 15 9.38 15 7 15 C7 21.27 7 27.54 7 34 C8.98 34 10.96 34 13 34 C14 35 14 35 14.125 37.5 C14 40 14 40 13 41 C4.36743393 41.42455243 4.36743393 41.42455243 1 39 C-0.25248502 36.49502996 -0.11374406 34.79146726 -0.09765625 31.9921875 C-0.09443359 31.00605469 -0.09121094 30.01992188 -0.08789062 29.00390625 C-0.07951172 27.97136719 -0.07113281 26.93882812 -0.0625 25.875 C-0.05798828 24.83472656 -0.05347656 23.79445313 -0.04882812 22.72265625 C-0.03701952 20.14838038 -0.02055075 17.57421854 0 15 C-1.65 15 -3.3 15 -5 15 C-5 12.69 -5 10.38 -5 8 C-3.35 8 -1.7 8 0 8 C0 5.36 0 2.72 0 0 Z " fill="#FFFFFF" transform="translate(661,320)"/>
<path d="M0 0 C2.64 0 5.28 0 8 0 C8 12.87 8 25.74 8 39 C9.32 39 10.64 39 12 39 C12 41.31 12 43.62 12 46 C8.20645242 46.29753314 5.70133635 46.36701435 2.29223633 44.58300781 C-1.1219712 40.73570612 -0.63129911 37.39884058 -0.48828125 32.421875 C-0.48120651 31.4953009 -0.47413177 30.56872681 -0.46684265 29.61407471 C-0.43888371 26.65855715 -0.37614272 23.70494356 -0.3125 20.75 C-0.28741906 18.74481905 -0.26460553 16.73960837 -0.24414062 14.734375 C-0.18905204 9.82218457 -0.10276911 4.91141493 0 0 Z " fill="#FFFFFF" transform="translate(1157,315)"/>
<path d="M0 0 C2.64 0 5.28 0 8 0 C8 12.87 8 25.74 8 39 C9.32 39 10.64 39 12 39 C12 41.31 12 43.62 12 46 C8.20645242 46.29753314 5.70133635 46.36701435 2.29223633 44.58300781 C-1.1219712 40.73570612 -0.63129911 37.39884058 -0.48828125 32.421875 C-0.48120651 31.4953009 -0.47413177 30.56872681 -0.46684265 29.61407471 C-0.43888371 26.65855715 -0.37614272 23.70494356 -0.3125 20.75 C-0.28741906 18.74481905 -0.26460553 16.73960837 -0.24414062 14.734375 C-0.18905204 9.82218457 -0.10276911 4.91141493 0 0 Z " fill="#FFFFFF" transform="translate(862,315)"/>
<path d="M0 0 C2.64 0 5.28 0 8 0 C8 12.87 8 25.74 8 39 C9.32 39 10.64 39 12 39 C12 41.31 12 43.62 12 46 C7.87819087 46.40409893 5.72338119 46.51519142 2.29223633 44.0715332 C-0.87436928 39.82836938 -0.64101269 36.69796044 -0.48828125 31.54296875 C-0.48120651 30.64000565 -0.47413177 29.73704254 -0.46684265 28.80671692 C-0.43893319 25.93278912 -0.37620232 23.06083528 -0.3125 20.1875 C-0.28741262 18.23505425 -0.26460022 16.28257785 -0.24414062 14.33007812 C-0.18911789 9.55262898 -0.10286998 4.77664874 0 0 Z " fill="#FFFFFF" transform="translate(1140,315)"/>
<path d="M0 0 C2.31 0 4.62 0 7 0 C7 12.87 7 25.74 7 39 C8.65 39 10.3 39 12 39 C12 41.31 12 43.62 12 46 C4.31578947 46.29554656 4.31578947 46.29554656 1 44 C-0.14315747 41.71368506 -0.12112732 40.45652594 -0.11352539 37.91748047 C-0.11344986 37.07675995 -0.11337433 36.23603943 -0.11329651 35.36984253 C-0.10813522 34.46146637 -0.10297394 33.55309021 -0.09765625 32.6171875 C-0.0962413 31.68778351 -0.09482635 30.75837952 -0.09336853 29.80081177 C-0.08776053 26.82550876 -0.07520668 23.85028036 -0.0625 20.875 C-0.05748603 18.86067817 -0.05292295 16.84635516 -0.04882812 14.83203125 C-0.0377885 9.88799198 -0.02051849 4.94400865 0 0 Z " fill="#FFFFFF" transform="translate(716,315)"/>
<path d="M0 0 C2.64 0 5.28 0 8 0 C8 10.89 8 21.78 8 33 C5.36 33 2.72 33 0 33 C0 22.11 0 11.22 0 0 Z " fill="#FFFFFF" transform="translate(936,328)"/>
<path d="M0 0 C2.64 0 5.28 0 8 0 C8 10.89 8 21.78 8 33 C5.36 33 2.72 33 0 33 C0 22.11 0 11.22 0 0 Z " fill="#FFFFFF" transform="translate(643,328)"/>
<path d="M0 0 C0.66 0.66 1.32 1.32 2 2 C1.625 5.125 1.625 5.125 1 8 C-1.875 8.625 -1.875 8.625 -5 9 C-7 7 -7 7 -7.125 3.875 C-7.08375 2.92625 -7.0425 1.9775 -7 1 C-4.48718205 -0.25640898 -2.78302919 -0.20872719 0 0 Z " fill="#FFFFFF" transform="translate(943,315)"/>
<path d="M0 0 C3.0625 -0.25 3.0625 -0.25 6 0 C7 1 7 1 7.1875 3.9375 C7 7 7 7 5 9 C1.875 8.625 1.875 8.625 -1 8 C-1.625 5.6875 -1.625 5.6875 -2 3 C-1.34 2.01 -0.68 1.02 0 0 Z " fill="#FFFFFF" transform="translate(644,315)"/>
</svg>
